<svg width="143" height="32" viewBox="0 0 143 32" fill="none" xmlns="http://www.w3.org/2000/svg">
<path fill-rule="evenodd" clip-rule="evenodd" d="M13.2971 0.687536C14.9824 -0.229179 17.0175 -0.229179 18.7028 0.687536L28.473 6.00205C30.2935 6.99226 31.4267 8.89867 31.4267 10.971V21.029C31.4267 23.1013 30.2935 25.0077 28.473 25.998L18.7028 31.3125C17.0175 32.2292 14.9824 32.2292 13.2971 31.3125L3.52687 25.998C1.70645 25.0077 0.573242 23.1013 0.573242 21.029L0.573242 10.971C0.573242 8.89867 1.70645 6.99226 3.52686 6.00205L13.2971 0.687536Z" fill="#ED8A12"/>
<path d="M17.4297 22H14.5703V13.0391H11.4609V10.7266H20.5391V13.0391H17.4297V22Z" fill="white"/>
<path d="M13.536 1.12676C15.0724 0.291079 16.9275 0.291079 18.4639 1.12676L28.2341 6.44127C29.8936 7.34396 30.9267 9.08185 30.9267 10.971V21.029C30.9267 22.9182 29.8936 24.656 28.2341 25.5587L18.4639 30.8732C16.9275 31.7089 15.0724 31.7089 13.536 30.8732L3.76578 25.5587C2.10628 24.656 1.07324 22.9182 1.07324 21.029V10.971C1.07324 9.08185 2.10628 7.34396 3.76578 6.44127L13.536 1.12676Z" stroke="url(#paint0_linear_16:5455)"/>
<path d="M53.056 7.248V9.96H48.592V24H45.232V9.96H40.768V7.248H53.056ZM63.6676 24L59.9716 17.472H58.3876V24H55.0276V7.248H61.3156C62.6116 7.248 63.7156 7.48 64.6276 7.944C65.5396 8.392 66.2196 9.008 66.6676 9.792C67.1316 10.56 67.3636 11.424 67.3636 12.384C67.3636 13.488 67.0436 14.488 66.4036 15.384C65.7636 16.264 64.8116 16.872 63.5476 17.208L67.5556 24H63.6676ZM58.3876 14.952H61.1956C62.1076 14.952 62.7876 14.736 63.2356 14.304C63.6836 13.856 63.9076 13.24 63.9076 12.456C63.9076 11.688 63.6836 11.096 63.2356 10.68C62.7876 10.248 62.1076 10.032 61.1956 10.032H58.3876V14.952ZM80.1946 20.808H73.5226L72.4186 24H68.8906L74.9146 7.224H78.8266L84.8506 24H81.2986L80.1946 20.808ZM79.2826 18.12L76.8586 11.112L74.4346 18.12H79.2826ZM92.4783 7.248C94.2383 7.248 95.7823 7.592 97.1103 8.28C98.4543 8.968 99.4863 9.952 100.206 11.232C100.942 12.496 101.31 13.968 101.31 15.648C101.31 17.328 100.942 18.8 100.206 20.064C99.4863 21.312 98.4543 22.28 97.1103 22.968C95.7823 23.656 94.2383 24 92.4783 24H86.6223V7.248H92.4783ZM92.3583 21.144C94.1183 21.144 95.4783 20.664 96.4383 19.704C97.3983 18.744 97.8783 17.392 97.8783 15.648C97.8783 13.904 97.3983 12.544 96.4383 11.568C95.4783 10.576 94.1183 10.08 92.3583 10.08H89.9823V21.144H92.3583ZM106.705 9.96V14.16H112.345V16.824H106.705V21.264H113.065V24H103.345V7.224H113.065V9.96H106.705ZM127.039 7.248V9.96H122.575V24H119.215V9.96H114.751V7.248H127.039ZM142.33 7.248L136.666 18.168V24H133.306V18.168L127.618 7.248H131.41L135.01 14.904L138.586 7.248H142.33Z" fill="#F4F5F6"/>
<defs>
<linearGradient id="paint0_linear_16:5455" x1="16" y1="0" x2="16" y2="32" gradientUnits="userSpaceOnUse">
<stop stop-color="#7EA4FF" stop-opacity="0.27"/>
<stop offset="1" stop-color="#1448C4" stop-opacity="0.42"/>
</linearGradient>
</defs>
</svg>
